<?xml version="1.0" encoding="utf-8"?>
<!-- Generator: Adobe Illustrator 25.0.1, SVG Export Plug-In . SVG Version: 6.00 Build 0)  -->
<svg version="1.1" id="Layer_1" xmlns="http://www.w3.org/2000/svg" xmlns:xlink="http://www.w3.org/1999/xlink" x="0px" y="0px"
	 viewBox="0 0 360 360" style="enable-background:new 0 0 360 360;" xml:space="preserve">
<style type="text/css">
	.st0{fill:#006DCC;}
	.st1{fill:#FFFFFF;stroke:#A7A9AC;stroke-width:0.75;}
	.st2{fill:#FF453A;}
	.st3{fill:#D12132;}
	.st4{fill:#FFCC13;}
	.st5{fill:#FFAD1E;}
</style>
<g>
	<path class="st0" d="M101.61,162.83l1.53-1.45l3.36,3.53l0.02-0.02c-0.18-0.45-0.39-0.92-0.58-1.38l-1.35-3.52l1.68-1.6l1.49,5.09
		l6.01,2.74l-1.67,1.59l-4.24-2.17l0.26,0.97l2.48,2.61l-1.53,1.45L101.61,162.83z"/>
	<path class="st0" d="M109.35,155.84l4.42,5.49c1,1.24,1.68,1.31,2.1,0.97c0.48-0.38,0.54-1-0.49-2.27l-4.42-5.49l1.64-1.32
		l4.19,5.2c1.75,2.17,1.88,4.01,0.25,5.32c-1.77,1.42-3.43,0.76-5.14-1.36l-4.2-5.22L109.35,155.84z"/>
	<path class="st0" d="M118.19,149.47c0.47-0.46,1.15-0.96,1.92-1.44c0.86-0.54,1.76-0.94,2.74-0.8c0.75,0.1,1.33,0.59,1.73,1.23
		c0.51,0.82,0.58,1.88-0.09,2.84l0.03,0.05c1.25-0.36,2.38,0.17,3.01,1.18c0.48,0.77,0.6,1.51,0.44,2.23
		c-0.17,0.94-0.9,1.85-2.44,2.81c-0.68,0.42-1.28,0.74-1.73,0.94L118.19,149.47z M122.25,152l0.38-0.24c0.64-0.4,0.79-1.25,0.33-2
		c-0.42-0.67-1.05-0.99-1.79-0.54c-0.19,0.12-0.35,0.23-0.43,0.34L122.25,152z M124.79,156.09c0.13-0.04,0.25-0.12,0.41-0.22
		c0.72-0.45,1.05-1.26,0.47-2.21c-0.57-0.92-1.5-1-2.21-0.58l-0.38,0.24L124.79,156.09z"/>
	<path class="st0" d="M125.58,144.84l1.87-0.98l4.19,8.03l2.47-1.29l0.83,1.58l-4.34,2.27L125.58,144.84z"/>
	<path class="st0" d="M139.4,144.07c1.63,3.75,0.97,5.85-0.92,6.67c-2.26,0.99-4.18-1.02-5.37-3.75c-1.18-2.71-1.13-5.53,1.07-6.49
		C136.58,139.45,138.41,141.79,139.4,144.07z M135.13,146.14c0.98,2.26,1.91,3.22,2.69,2.88c0.81-0.35,0.48-1.96-0.4-3.99
		c-0.76-1.74-1.71-3.2-2.58-2.82C134.07,142.55,134.19,144,135.13,146.14z"/>
	<path class="st0" d="M147.88,146.87c-0.24,0.24-0.77,0.54-1.47,0.78c-2.61,0.91-4.61-0.81-5.62-3.72
		c-1.34-3.86,0.27-6.11,2.26-6.81c0.7-0.24,1.23-0.28,1.48-0.21l0.25,1.79c-0.27-0.03-0.56-0.03-1,0.13
		c-1.12,0.39-1.8,1.72-0.92,4.26c0.85,2.45,2.11,3.08,3.33,2.66c0.33-0.12,0.69-0.32,0.9-0.49L147.88,146.87z"/>
	<path class="st0" d="M146.37,136.17l2.04-0.54l1.26,4.71l0.03-0.01c0.05-0.48,0.1-0.99,0.15-1.49l0.5-3.73l2.24-0.6l-1.13,5.18
		l3.96,5.29l-2.22,0.59l-2.68-3.93l-0.24,0.98l0.93,3.48l-2.04,0.54L146.37,136.17z"/>
	<path class="st0" d="M161.63,143.67c-0.27,0.2-0.84,0.42-1.57,0.56c-2.72,0.51-4.44-1.49-5.01-4.52c-0.76-4.02,1.18-6,3.25-6.39
		c0.73-0.14,1.26-0.09,1.49,0.02l-0.02,1.81c-0.26-0.07-0.54-0.11-1-0.03c-1.17,0.22-2.04,1.43-1.54,4.07
		c0.48,2.55,1.63,3.36,2.9,3.13c0.35-0.06,0.73-0.22,0.97-0.34L161.63,143.67z"/>
	<path class="st0" d="M163.89,132.62l0.46,4.32l2.19-0.23l-0.46-4.32l2.1-0.22l1.15,10.79l-2.1,0.22l-0.48-4.51l-2.19,0.23
		l0.48,4.51l-2.1,0.22l-1.15-10.79L163.89,132.62z"/>
	<path class="st0" d="M172.95,140.34l-0.43,2.49l-2.04,0.05l2.1-10.89l2.52-0.06l2.35,10.79l-2.04,0.05l-0.52-2.47L172.95,140.34z
		 M174.66,138.65l-0.41-2.26c-0.13-0.66-0.3-1.73-0.41-2.45l-0.05,0c-0.1,0.73-0.23,1.86-0.33,2.49l-0.35,2.26L174.66,138.65z"/>
	<path class="st0" d="M181.36,132.03l-0.42,10.84l-2.11-0.08l0.42-10.84L181.36,132.03z"/>
	<path class="st0" d="M183.25,142.97l1.17-10.79l1.92,0.21l1.21,4.4c0.23,0.87,0.61,2.32,0.81,3.28l0.03,0
		c0.06-1.14,0.12-3.03,0.33-5.02l0.26-2.38l1.84,0.2l-1.17,10.79l-1.92-0.21l-1.2-4.28c-0.25-0.95-0.6-2.36-0.74-3.37l-0.03,0
		c-0.07,1.09-0.17,2.77-0.41,4.93l-0.26,2.43L183.25,142.97z"/>
	<path class="st0" d="M199.81,134.57l-2.32,10.59l-2.06-0.45l2.32-10.59L199.81,134.57z"/>
	<path class="st0" d="M199.47,145.59l3.02-10.42l1.86,0.54l0.42,4.55c0.08,0.89,0.2,2.39,0.23,3.37l0.03,0.01
		c0.26-1.12,0.64-2.96,1.2-4.88l0.67-2.3l1.78,0.52l-3.02,10.42l-1.85-0.54l-0.44-4.42c-0.08-0.98-0.18-2.43-0.14-3.44l-0.03-0.01
		c-0.26,1.06-0.65,2.69-1.25,4.78l-0.68,2.35L199.47,145.59z"/>
	<path class="st0" d="M208.05,145.94c0.32,0.38,0.95,0.81,1.52,1.02c0.93,0.35,1.57,0.04,1.82-0.62c0.28-0.74-0.04-1.27-0.68-2.15
		c-1.07-1.37-1.19-2.64-0.84-3.55c0.61-1.63,2.21-2.57,4.33-1.77c0.66,0.25,1.23,0.67,1.46,0.96l-0.96,1.58
		c-0.22-0.29-0.59-0.62-1.16-0.83c-0.84-0.32-1.44,0.04-1.65,0.58c-0.23,0.6-0.05,1.03,0.8,2.11c1.03,1.32,1.14,2.53,0.74,3.6
		c-0.7,1.85-2.53,2.55-4.52,1.8c-0.81-0.31-1.53-0.82-1.79-1.14L208.05,145.94z"/>
	<path class="st0" d="M218.33,142.8l-1.74-0.8l0.81-1.77l5.41,2.48l-0.81,1.77l-1.76-0.81l-3.7,8.09l-1.92-0.88L218.33,142.8z"/>
	<path class="st0" d="M226.36,144.59l-5.07,9.6l-1.86-0.99l5.07-9.6L226.36,144.59z"/>
	<path class="st0" d="M228.72,148.17l-1.64-0.99l1.01-1.67l5.1,3.08l-1,1.67l-1.65-1l-4.6,7.62l-1.81-1.09L228.72,148.17z"/>
	<path class="st0" d="M236.57,150.91l-4.1,5.73c-0.93,1.3-0.81,1.97-0.37,2.29c0.5,0.36,1.1,0.26,2.06-1.08l4.1-5.73l1.71,1.23
		l-3.88,5.43c-1.62,2.27-3.35,2.89-5.05,1.67c-1.85-1.32-1.66-3.11-0.08-5.32l3.89-5.45L236.57,150.91z"/>
	<path class="st0" d="M241.79,157.31l-1.47-1.23l1.25-1.49l4.56,3.83l-1.25,1.49l-1.48-1.24l-5.71,6.83l-1.62-1.35L241.79,157.31z"
		/>
	<path class="st0" d="M246.7,167.34l-1.79-1.72l-2.03,2.11l2.02,1.94l-1.27,1.32l-3.54-3.4l7.52-7.82l3.4,3.27l-1.27,1.32
		l-1.88-1.81l-1.73,1.8l1.79,1.72L246.7,167.34z"/>
</g>
<polygon class="st1" points="211.66,161.74 193.86,179.54 176.07,161.75 158.27,179.54 140.48,161.75 119.89,182.33 176.07,238.51 
	232.25,182.33 "/>
<rect x="128.86" y="170.72" transform="matrix(0.7071 -0.7071 0.7071 0.7071 -87.7851 152.7343)" class="st0" width="23.23" height="23.23"/>
<rect x="200.05" y="170.72" transform="matrix(0.7071 -0.7071 0.7071 0.7071 -66.9342 203.0718)" class="st0" width="23.23" height="23.23"/>
<polygon class="st2" points="192.31,200.16 184.89,207.58 193.86,216.56 210.29,200.13 193.86,183.7 184.86,192.71 "/>
<polygon class="st2" points="176.07,198.76 192.49,182.33 176.07,165.91 176.07,198.76 "/>
<polygon class="st3" points="167.28,192.71 158.27,183.7 141.85,200.13 158.27,216.56 167.24,207.59 159.82,200.17 "/>
<polygon class="st3" points="176.07,198.76 176.07,165.91 159.64,182.33 "/>
<polygon class="st4" points="176.07,234.35 176.07,234.35 192.49,217.93 176.08,201.52 176.17,218.31 "/>
<polygon class="st5" points="176.08,201.52 176.07,201.5 176.06,201.5 159.64,217.93 175.85,234.14 176.07,234.35 176.17,218.31 "/>
<rect x="163.94" y="195.71" transform="matrix(0.7068 -0.7074 0.7074 0.7068 -92.2102 177.7978)" class="st0" width="8.93" height="8.88"/>
<rect x="179.29" y="195.68" transform="matrix(0.7071 -0.7071 0.7071 0.7071 -87.7093 188.54)" class="st0" width="8.88" height="8.92"/>
</svg>
